<svg width="180" height="180" viewBox="0 0 180 180" fill="none" xmlns="http://www.w3.org/2000/svg">
<g filter="url(#filter0_d)">
<rect x="30" y="20" width="120" height="120" rx="60" fill="white"/>
</g>
<path d="M113.617 69.0117L108.285 60.4805C107.793 59.7422 106.973 59.25 106.07 59.25H72.9297C72.0273 59.25 71.125 59.7422 70.6328 60.4805L65.3828 69.0117C62.9219 72.8672 64.5625 78.1172 68.5 79.7578V98.3789C68.5 100.02 69.6484 101.25 71.125 101.25H107.875C109.27 101.25 110.5 100.02 110.5 98.3789V79.7578C114.437 78.1172 115.996 72.8672 113.617 69.0117ZM106.562 97.3125H72.4375V89.4375H106.562V97.3125ZM106.48 85.5H72.4375V80.25C74.4062 79.9219 76.1289 78.9375 77.3594 77.543C78.8359 79.1836 80.9687 80.25 83.4297 80.25C85.8086 80.25 87.9414 79.1836 89.418 77.543C90.8945 79.1836 93.1094 80.25 95.4883 80.25C97.9492 80.25 100.082 79.1836 101.559 77.543C102.789 78.9375 104.512 79.9219 106.48 80.25V85.5ZM110.418 74.5898C110.172 75.1641 109.516 76.1484 108.203 76.3125C108.039 76.3125 107.793 76.3945 107.629 76.3945C106.398 76.3945 105.332 75.8203 104.512 74.918L101.559 71.6367L98.6875 74.918C97.8672 75.8203 96.7187 76.3125 95.4883 76.3125C94.3398 76.3125 93.1914 75.8203 92.3711 74.918L89.5 71.6367L86.5469 74.918C85.7265 75.8203 84.5781 76.3125 83.4297 76.3125C82.1992 76.3125 81.1328 75.8203 80.3125 74.918L77.3594 71.6367L74.4062 74.918C73.5859 75.8203 72.5195 76.3125 71.289 76.3125C71.125 76.3125 70.8789 76.3125 70.7148 76.3125C69.4023 76.1484 68.7461 75.1641 68.5 74.5898C68.0898 73.6875 67.9258 72.375 68.664 71.1445L73.5859 63.1875H105.332L110.254 71.1445C110.992 72.375 110.828 73.6875 110.418 74.5898Z" fill="#FBB03B"/>
<defs>
<filter id="filter0_d" x="0" y="0" width="180" height="180" filterUnits="userSpaceOnUse" color-interpolation-filters="sRGB">
<feFlood flood-opacity="0" result="BackgroundImageFix"/>
<feColorMatrix in="SourceAlpha" type="matrix" values="0 0 0 0 0 0 0 0 0 0 0 0 0 0 0 0 0 0 127 0"/>
<feOffset dy="10"/>
<feGaussianBlur stdDeviation="15"/>
<feColorMatrix type="matrix" values="0 0 0 0 0 0 0 0 0 0 0 0 0 0 0 0 0 0 0.1 0"/>
<feBlend mode="normal" in2="BackgroundImageFix" result="effect1_dropShadow"/>
<feBlend mode="normal" in="SourceGraphic" in2="effect1_dropShadow" result="shape"/>
</filter>
</defs>
</svg>
