<svg width="180" height="180" viewBox="0 0 180 180" fill="none" xmlns="http://www.w3.org/2000/svg">
<g filter="url(#filter0_d)">
<rect x="30" y="20" width="120" height="120" rx="60" fill="white"/>
</g>
<path d="M83.5938 69.75H82.2812C81.8711 69.75 81.625 70.0781 81.625 70.4062V90.0938C81.625 90.5039 81.8711 90.75 82.2812 90.75H83.5938C83.9219 90.75 84.25 90.5039 84.25 90.0938V70.4062C84.25 70.0781 83.9219 69.75 83.5938 69.75ZM78.3438 69.75H74.4062C73.9961 69.75 73.75 70.0781 73.75 70.4062V90.0938C73.75 90.5039 73.9961 90.75 74.4062 90.75H78.3438C78.6719 90.75 79 90.5039 79 90.0938V70.4062C79 70.0781 78.6719 69.75 78.3438 69.75ZM75.0625 97.3125H67.1875V89.4375C67.1875 88.7812 66.5312 88.125 65.875 88.125H64.5625C63.8242 88.125 63.25 88.7812 63.25 89.4375V99.9375C63.25 100.676 63.8242 101.25 64.5625 101.25H75.0625C75.7188 101.25 76.375 100.676 76.375 99.9375V98.625C76.375 97.9688 75.7188 97.3125 75.0625 97.3125ZM64.5625 72.375H65.875C66.5312 72.375 67.1875 71.8008 67.1875 71.0625V63.1875H75.0625C75.7188 63.1875 76.375 62.6133 76.375 61.875V60.5625C76.375 59.9062 75.7188 59.25 75.0625 59.25H64.5625C63.8242 59.25 63.25 59.9062 63.25 60.5625V71.0625C63.25 71.8008 63.8242 72.375 64.5625 72.375ZM105.25 90.0938V70.4062C105.25 70.0781 104.922 69.75 104.594 69.75H100.656C100.246 69.75 100 70.0781 100 70.4062V90.0938C100 90.5039 100.246 90.75 100.656 90.75H104.594C104.922 90.75 105.25 90.5039 105.25 90.0938ZM88.8438 69.75H87.5312C87.1211 69.75 86.875 70.0781 86.875 70.4062V90.0938C86.875 90.5039 87.1211 90.75 87.5312 90.75H88.8438C89.1719 90.75 89.5 90.5039 89.5 90.0938V70.4062C89.5 70.0781 89.1719 69.75 88.8438 69.75ZM114.438 88.125H113.125C112.387 88.125 111.812 88.7812 111.812 89.4375V97.3125H103.938C103.199 97.3125 102.625 97.9688 102.625 98.625V99.9375C102.625 100.676 103.199 101.25 103.938 101.25H114.438C115.094 101.25 115.75 100.676 115.75 99.9375V89.4375C115.75 88.7812 115.094 88.125 114.438 88.125ZM114.438 59.25H103.938C103.199 59.25 102.625 59.9062 102.625 60.5625V61.875C102.625 62.6133 103.199 63.1875 103.938 63.1875H111.812V71.0625C111.812 71.8008 112.387 72.375 113.125 72.375H114.438C115.094 72.375 115.75 71.8008 115.75 71.0625V60.5625C115.75 59.9062 115.094 59.25 114.438 59.25ZM96.7188 69.75H92.7812C92.3711 69.75 92.125 70.0781 92.125 70.4062V90.0938C92.125 90.5039 92.3711 90.75 92.7812 90.75H96.7188C97.0469 90.75 97.375 90.5039 97.375 90.0938V70.4062C97.375 70.0781 97.0469 69.75 96.7188 69.75Z" fill="#FBB03B"/>
<defs>
<filter id="filter0_d" x="0" y="0" width="180" height="180" filterUnits="userSpaceOnUse" color-interpolation-filters="sRGB">
<feFlood flood-opacity="0" result="BackgroundImageFix"/>
<feColorMatrix in="SourceAlpha" type="matrix" values="0 0 0 0 0 0 0 0 0 0 0 0 0 0 0 0 0 0 127 0"/>
<feOffset dy="10"/>
<feGaussianBlur stdDeviation="15"/>
<feColorMatrix type="matrix" values="0 0 0 0 0 0 0 0 0 0 0 0 0 0 0 0 0 0 0.1 0"/>
<feBlend mode="normal" in2="BackgroundImageFix" result="effect1_dropShadow"/>
<feBlend mode="normal" in="SourceGraphic" in2="effect1_dropShadow" result="shape"/>
</filter>
</defs>
</svg>
