<svg width="180" height="180" viewBox="0 0 180 180" fill="none" xmlns="http://www.w3.org/2000/svg">
<g filter="url(#filter0_d)">
<rect x="30" y="20" width="120" height="120" rx="60" fill="white"/>
</g>
<path d="M71.125 77.625H86.875V61.875H71.125V77.625ZM74.4062 65.1562H83.5938V74.3438H74.4062V65.1562ZM92.125 61.875V77.625H107.875V61.875H92.125ZM104.594 74.3438H95.4062V65.1562H104.594V74.3438ZM71.125 98.625H86.875V82.875H71.125V98.625ZM74.4062 86.1562H83.5938V95.3438H74.4062V86.1562ZM77.0312 88.7812V92.7188H80.9688V88.7812H77.0312ZM77.0312 67.7812V71.7188H80.9688V67.7812H77.0312ZM101.969 71.7188V67.7812H98.0312V71.7188H101.969ZM105.25 82.875V85.5H100V82.875H92.125V98.625H94.75V90.75H97.375V93.375H107.875V82.875H105.25ZM105.25 96V98.625H107.875V96H105.25ZM100 96V98.625H102.625V96H100Z" fill="#FBB03B"/>
<defs>
<filter id="filter0_d" x="0" y="0" width="180" height="180" filterUnits="userSpaceOnUse" color-interpolation-filters="sRGB">
<feFlood flood-opacity="0" result="BackgroundImageFix"/>
<feColorMatrix in="SourceAlpha" type="matrix" values="0 0 0 0 0 0 0 0 0 0 0 0 0 0 0 0 0 0 127 0"/>
<feOffset dy="10"/>
<feGaussianBlur stdDeviation="15"/>
<feColorMatrix type="matrix" values="0 0 0 0 0 0 0 0 0 0 0 0 0 0 0 0 0 0 0.1 0"/>
<feBlend mode="normal" in2="BackgroundImageFix" result="effect1_dropShadow"/>
<feBlend mode="normal" in="SourceGraphic" in2="effect1_dropShadow" result="shape"/>
</filter>
</defs>
</svg>
