<svg width="48" height="48" viewBox="0 0 48 48" fill="none" xmlns="http://www.w3.org/2000/svg">
<path fill-rule="evenodd" clip-rule="evenodd" d="M24 44.0002C35.0457 44.0002 44 35.0459 44 24.0002C44 12.9545 35.0457 4.00024 24 4.00024C12.9543 4.00024 4 12.9545 4 24.0002C4 35.0459 12.9543 44.0002 24 44.0002Z" fill="white"/>
<path fill-rule="evenodd" clip-rule="evenodd" d="M22 36.8232C22 37.6146 23.0669 37.8665 23.4208 37.1586L31.4573 21.0857C31.7066 20.587 31.344 20.0002 30.7865 20.0002H24V11.1773C24 10.3859 22.9331 10.134 22.5792 10.8419L14.5427 26.9148C14.2934 27.4135 14.656 28.0002 15.2135 28.0002H22V36.8232Z" fill="#FC9571"/>
</svg>
