<svg width="197" height="26" viewBox="0 0 197 26" fill="none" xmlns="http://www.w3.org/2000/svg">
<path d="M31.5625 19.6635H14.7302C14.5029 19.6635 14.2849 19.5735 14.1241 19.4135C13.9634 19.2534 13.8731 19.0363 13.8731 18.8099C13.8731 18.5836 13.9634 18.3665 14.1241 18.2064C14.2849 18.0463 14.5029 17.9564 14.7302 17.9564H30.8958L34.1569 5.16612H11.5813C11.4238 5.16615 11.2693 5.12294 11.1348 5.04125C11.0004 4.95955 10.8911 4.84253 10.8191 4.70303L9.27139 1.70704H6.69552C6.46821 1.70704 6.25022 1.61712 6.08949 1.45705C5.92875 1.29698 5.83846 1.0799 5.83846 0.853532C5.83846 0.627162 5.92875 0.410059 6.08949 0.249992C6.25022 0.0899243 6.46821 6.90598e-10 6.69552 6.90555e-10H9.79437C9.95188 5.46238e-06 10.1063 0.043223 10.2408 0.124914C10.3753 0.206606 10.4845 0.323611 10.5566 0.463084L12.1042 3.45908H35.2589C35.3894 3.45908 35.5182 3.48875 35.6355 3.54586C35.7527 3.60297 35.8553 3.68599 35.9355 3.78859C36.0156 3.89119 36.0711 4.01067 36.0979 4.1379C36.1246 4.26514 36.1218 4.39676 36.0897 4.52275L32.3933 19.0201C32.3463 19.204 32.2392 19.3672 32.0887 19.4837C31.9382 19.6002 31.7531 19.6635 31.5625 19.6635ZM12.5917 18.8099C12.5917 18.6978 12.5695 18.5868 12.5264 18.4833C12.4833 18.3797 12.4202 18.2856 12.3406 18.2064C12.261 18.1271 12.1665 18.0643 12.0625 18.0214C11.9585 17.9785 11.8471 17.9564 11.7345 17.9564H10.8311C10.6038 17.9564 10.3858 18.0463 10.2251 18.2064C10.0643 18.3665 9.97404 18.5836 9.97404 18.8099C9.97404 19.0363 10.0643 19.2534 10.2251 19.4135C10.3858 19.5735 10.6038 19.6635 10.8311 19.6635H11.7345C11.8471 19.6635 11.9585 19.6414 12.0625 19.5985C12.1665 19.5556 12.261 19.4927 12.3406 19.4135C12.4202 19.3342 12.4833 19.2401 12.5264 19.1366C12.5695 19.033 12.5917 18.922 12.5917 18.8099ZM17.707 11.5601C17.707 11.448 17.6848 11.337 17.6417 11.2334C17.5986 11.1299 17.5355 11.0358 17.4559 10.9565C17.3763 10.8773 17.2818 10.8144 17.1778 10.7715C17.0738 10.7286 16.9624 10.7066 16.8498 10.7066H10.1585C9.93115 10.7066 9.71316 10.7965 9.55243 10.9565C9.3917 11.1166 9.3014 11.3337 9.3014 11.5601C9.3014 11.7864 9.3917 12.0035 9.55243 12.1636C9.71316 12.3237 9.93115 12.4136 10.1585 12.4136H16.8498C16.9624 12.4136 17.0738 12.3915 17.1778 12.3486C17.2818 12.3057 17.3763 12.2429 17.4559 12.1636C17.5355 12.0844 17.5986 11.9903 17.6417 11.8867C17.6848 11.7832 17.707 11.6722 17.707 11.5601ZM17.707 15.185C17.707 14.9586 17.6167 14.7415 17.4559 14.5815C17.2952 14.4214 17.0771 14.3315 16.8498 14.3315H14.3988C14.1715 14.3315 13.9535 14.4214 13.7927 14.5815C13.632 14.7415 13.5417 14.9586 13.5417 15.185C13.5417 15.4114 13.632 15.6285 13.7927 15.7885C13.9535 15.9486 14.1715 16.0385 14.3988 16.0385H16.8498C17.0771 16.0385 17.2952 15.9486 17.4559 15.7885C17.6167 15.6285 17.707 15.4114 17.707 15.185ZM11.9195 15.185C11.9195 15.0729 11.8973 14.9619 11.8543 14.8584C11.8112 14.7548 11.748 14.6607 11.6685 14.5814C11.5889 14.5022 11.4944 14.4393 11.3904 14.3964C11.2864 14.3535 11.1749 14.3315 11.0624 14.3315H6.83198C6.60468 14.3315 6.38668 14.4214 6.22595 14.5815C6.06522 14.7415 5.97492 14.9586 5.97492 15.185C5.97492 15.4114 6.06522 15.6285 6.22595 15.7885C6.38668 15.9486 6.60468 16.0385 6.83198 16.0385H11.0624C11.1749 16.0385 11.2864 16.0164 11.3904 15.9736C11.4944 15.9307 11.5889 15.8678 11.6685 15.7885C11.748 15.7093 11.8112 15.6152 11.8543 15.5116C11.8973 15.4081 11.9195 15.2971 11.9195 15.185ZM4.21587 0.853508C4.21585 0.62713 4.12554 0.410033 3.96479 0.249968C3.80404 0.0899035 3.58603 -9.09844e-06 3.35871 6.90555e-10H0.857067C0.629758 6.90555e-10 0.411761 0.0899243 0.251029 0.249992C0.0902974 0.410059 0 0.627162 0 0.853532C0 1.0799 0.0902974 1.29698 0.251029 1.45705C0.411761 1.61712 0.629758 1.70704 0.857067 1.70704H3.35871C3.58603 1.70705 3.80405 1.61714 3.9648 1.45707C4.12554 1.297 4.21586 1.07989 4.21587 0.853508ZM17.707 7.93515C17.707 7.82306 17.6848 7.71205 17.6417 7.6085C17.5986 7.50494 17.5355 7.41084 17.4559 7.33159C17.3763 7.25233 17.2818 7.18947 17.1778 7.14658C17.0738 7.10369 16.9624 7.08161 16.8498 7.08162H16.0992C15.8719 7.08162 15.6539 7.17155 15.4931 7.33161C15.3324 7.49168 15.2421 7.70878 15.2421 7.93515C15.2421 8.16152 15.3324 8.3786 15.4931 8.53867C15.6539 8.69873 15.8719 8.78866 16.0992 8.78866H16.8498C16.9624 8.78867 17.0738 8.76659 17.1778 8.7237C17.2818 8.68081 17.3763 8.61795 17.4559 8.53869C17.5355 8.45943 17.5986 8.36534 17.6417 8.26178C17.6848 8.15822 17.707 8.04724 17.707 7.93515ZM13.895 7.93515C13.895 7.82306 13.8729 7.71205 13.8298 7.6085C13.7867 7.50494 13.7236 7.41084 13.644 7.33159C13.5644 7.25233 13.4699 7.18947 13.3659 7.14658C13.2619 7.10369 13.1504 7.08161 13.0379 7.08162H6.30234C6.07503 7.08162 5.85704 7.17155 5.69631 7.33161C5.53558 7.49168 5.44528 7.70878 5.44528 7.93515C5.44528 8.16152 5.53558 8.3786 5.69631 8.53867C5.85704 8.69873 6.07503 8.78866 6.30234 8.78866H13.0379C13.1504 8.78867 13.2619 8.76659 13.3659 8.7237C13.4699 8.68081 13.5644 8.61795 13.644 8.53869C13.7236 8.45943 13.7867 8.36534 13.8298 8.26178C13.8729 8.15822 13.895 8.04724 13.895 7.93515ZM14.8702 21.3502C14.4095 21.3502 13.9591 21.4863 13.576 21.7412C13.1929 21.9961 12.8943 22.3584 12.718 22.7823C12.5417 23.2062 12.4956 23.6727 12.5854 24.1227C12.6753 24.5727 12.8972 24.9861 13.223 25.3105C13.5488 25.635 13.9639 25.856 14.4157 25.9455C14.8676 26.035 15.336 25.989 15.7617 25.8135C16.1874 25.6379 16.5512 25.3405 16.8072 24.959C17.0631 24.5775 17.1998 24.129 17.1998 23.6701C17.1998 23.3655 17.1395 23.0638 17.0224 22.7823C16.9054 22.5009 16.7338 22.2451 16.5175 22.0297C16.3011 21.8143 16.0443 21.6434 15.7617 21.5268C15.4791 21.4102 15.1761 21.3502 14.8702 21.3502ZM26.9111 21.3502C26.4504 21.3502 26 21.4863 25.6169 21.7412C25.2338 21.9961 24.9352 22.3584 24.7589 22.7823C24.5826 23.2062 24.5364 23.6727 24.6263 24.1227C24.7162 24.5727 24.9381 24.9861 25.2639 25.3105C25.5897 25.635 26.0047 25.856 26.4566 25.9455C26.9085 26.035 27.3769 25.989 27.8026 25.8135C28.2282 25.6379 28.5921 25.3405 28.848 24.959C29.104 24.5775 29.2406 24.129 29.2406 23.6701C29.2406 23.3655 29.1804 23.0638 29.0633 22.7823C28.9462 22.5009 28.7747 22.2451 28.5583 22.0297C28.342 21.8143 28.0852 21.6434 27.8026 21.5268C27.5199 21.4102 27.217 21.3502 26.9111 21.3502Z" fill="#939FA4"/>
<path d="M19.2394 7.08838H18.5643V16.2018H19.2394V7.08838Z" fill="#939FA4"/>
<path d="M21.2645 7.08813H20.927V16.2015H21.2645V7.08813Z" fill="#939FA4"/>
<path d="M22.2771 7.08813H21.9396V16.2015H22.2771V7.08813Z" fill="#939FA4"/>
<path d="M27.6777 7.08813H27.3402V16.2015H27.6777V7.08813Z" fill="#939FA4"/>
<path d="M20.5895 7.08813H19.5769V16.2015H20.5895V7.08813Z" fill="#939FA4"/>
<path d="M26.3276 7.08813H23.9648V16.2015H26.3276V7.08813Z" fill="#939FA4"/>
<path d="M23.2898 7.08813H22.6147V16.2015H23.2898V7.08813Z" fill="#939FA4"/>
<path d="M29.0278 7.08813H28.3528V16.2015H29.0278V7.08813Z" fill="#939FA4"/>
<path d="M30.378 7.08813H29.3654V13.5013H30.378V7.08813Z" fill="#939FA4"/>
<path d="M31.053 7.08813H30.7155V10.1259H31.053V7.08813Z" fill="#939FA4"/>
<path d="M143.597 22.7061C142.726 22.7061 142.038 22.4529 141.531 21.9466C141.025 21.4403 140.772 20.7518 140.772 19.8809V4.1755C140.995 4.135 141.349 4.08437 141.835 4.02361C142.321 3.9426 142.787 3.9021 143.232 3.9021C143.698 3.9021 144.103 3.9426 144.448 4.02361C144.812 4.08437 145.116 4.20588 145.359 4.38815C145.602 4.57042 145.784 4.82357 145.906 5.1476C146.027 5.47163 146.088 5.89692 146.088 6.42347V18.4228H153.045C153.186 18.6455 153.318 18.9493 153.439 19.3341C153.561 19.6986 153.622 20.0834 153.622 20.4885C153.622 21.2986 153.45 21.8757 153.105 22.22C152.761 22.5441 152.305 22.7061 151.738 22.7061H143.597Z" fill="#939FA4"/>
<path d="M162.551 23.101C161.356 23.101 160.242 22.939 159.209 22.6149C158.197 22.2707 157.305 21.7644 156.536 21.096C155.787 20.4277 155.189 19.5873 154.744 18.5747C154.318 17.5621 154.106 16.3773 154.106 15.0204C154.106 13.6838 154.318 12.5396 154.744 11.5877C155.189 10.6156 155.766 9.82581 156.475 9.21825C157.184 8.59044 157.994 8.13476 158.905 7.85124C159.817 7.54746 160.748 7.39557 161.7 7.39557C162.773 7.39557 163.746 7.55758 164.616 7.88162C165.508 8.20565 166.267 8.65119 166.895 9.21825C167.543 9.7853 168.039 10.4637 168.383 11.2536C168.748 12.0434 168.93 12.9041 168.93 13.8357C168.93 14.5243 168.738 15.0508 168.353 15.4154C167.968 15.7799 167.431 16.0128 166.743 16.114L159.24 17.238C159.462 17.9063 159.918 18.4126 160.607 18.7569C161.295 19.081 162.085 19.243 162.976 19.243C163.806 19.243 164.586 19.1417 165.315 18.9392C166.064 18.7164 166.672 18.4633 167.138 18.1798C167.462 18.3823 167.735 18.6658 167.958 19.0303C168.181 19.3949 168.292 19.7797 168.292 20.1847C168.292 21.096 167.867 21.7745 167.016 22.22C166.368 22.5643 165.639 22.7972 164.829 22.9187C164.019 23.0402 163.26 23.101 162.551 23.101ZM161.7 11.1624C161.214 11.1624 160.789 11.2434 160.424 11.4055C160.08 11.5675 159.796 11.7801 159.574 12.0434C159.351 12.2864 159.179 12.57 159.057 12.894C158.956 13.1978 158.895 13.5117 158.875 13.8357L164.07 12.9851C164.009 12.5801 163.786 12.175 163.401 11.77C163.017 11.365 162.449 11.1624 161.7 11.1624Z" fill="#939FA4"/>
<path d="M182.959 18.2101C182.959 19.7493 182.382 20.9543 181.228 21.8251C180.074 22.6959 178.372 23.1314 176.124 23.1314C175.274 23.1314 174.484 23.0706 173.755 22.9491C173.026 22.8276 172.398 22.6453 171.872 22.4023C171.365 22.139 170.96 21.815 170.656 21.4302C170.373 21.0454 170.231 20.5897 170.231 20.0632C170.231 19.5771 170.332 19.1721 170.535 18.8481C170.737 18.5038 170.98 18.2203 171.264 17.9975C171.851 18.3215 172.52 18.6152 173.269 18.8784C174.039 19.1215 174.919 19.243 175.912 19.243C176.54 19.243 177.016 19.1518 177.34 18.9696C177.684 18.7873 177.856 18.5443 177.856 18.2405C177.856 17.957 177.734 17.7342 177.491 17.5722C177.248 17.4102 176.843 17.2785 176.276 17.1773L175.365 16.995C173.603 16.6507 172.287 16.114 171.416 15.385C170.565 14.6357 170.14 13.5724 170.14 12.1953C170.14 11.446 170.302 10.7675 170.626 10.16C170.95 9.5524 171.406 9.0461 171.993 8.64107C172.58 8.23603 173.279 7.92212 174.089 7.69935C174.919 7.47658 175.831 7.36519 176.823 7.36519C177.572 7.36519 178.271 7.42595 178.919 7.54746C179.588 7.64872 180.165 7.81073 180.651 8.03351C181.137 8.25628 181.522 8.54993 181.805 8.91447C182.089 9.25875 182.23 9.67392 182.23 10.16C182.23 10.6258 182.139 11.0308 181.957 11.3751C181.795 11.6991 181.582 11.9725 181.319 12.1953C181.157 12.094 180.914 11.9928 180.59 11.8915C180.266 11.77 179.912 11.6687 179.527 11.5877C179.142 11.4865 178.747 11.4055 178.342 11.3447C177.957 11.2839 177.603 11.2536 177.279 11.2536C176.611 11.2536 176.094 11.3346 175.73 11.4966C175.365 11.6384 175.183 11.8713 175.183 12.1953C175.183 12.4181 175.284 12.6003 175.487 12.7421C175.689 12.8839 176.074 13.0155 176.641 13.137L177.583 13.3497C179.527 13.7952 180.904 14.4129 181.714 15.2027C182.544 15.9723 182.959 16.9748 182.959 18.2101Z" fill="#939FA4"/>
<path d="M197 18.2101C197 19.7493 196.423 20.9543 195.268 21.8251C194.114 22.6959 192.413 23.1314 190.165 23.1314C189.314 23.1314 188.524 23.0706 187.795 22.9491C187.066 22.8276 186.438 22.6453 185.912 22.4023C185.406 22.139 185.001 21.815 184.697 21.4302C184.413 21.0454 184.271 20.5897 184.271 20.0632C184.271 19.5771 184.373 19.1721 184.575 18.8481C184.778 18.5038 185.021 18.2203 185.304 17.9975C185.892 18.3215 186.56 18.6152 187.309 18.8784C188.079 19.1215 188.96 19.243 189.952 19.243C190.58 19.243 191.056 19.1518 191.38 18.9696C191.724 18.7873 191.896 18.5443 191.896 18.2405C191.896 17.957 191.775 17.7342 191.532 17.5722C191.289 17.4102 190.884 17.2785 190.317 17.1773L189.405 16.995C187.643 16.6507 186.327 16.114 185.456 15.385C184.606 14.6357 184.18 13.5724 184.18 12.1953C184.18 11.446 184.342 10.7675 184.666 10.16C184.99 9.5524 185.446 9.0461 186.033 8.64107C186.621 8.23603 187.319 7.92212 188.129 7.69935C188.96 7.47658 189.871 7.36519 190.863 7.36519C191.613 7.36519 192.311 7.42595 192.96 7.54746C193.628 7.64872 194.205 7.81073 194.691 8.03351C195.177 8.25628 195.562 8.54993 195.845 8.91447C196.129 9.25875 196.271 9.67392 196.271 10.16C196.271 10.6258 196.18 11.0308 195.997 11.3751C195.835 11.6991 195.623 11.9725 195.359 12.1953C195.197 12.094 194.954 11.9928 194.63 11.8915C194.306 11.77 193.952 11.6687 193.567 11.5877C193.182 11.4865 192.787 11.4055 192.382 11.3447C191.998 11.2839 191.643 11.2536 191.319 11.2536C190.651 11.2536 190.134 11.3346 189.77 11.4966C189.405 11.6384 189.223 11.8713 189.223 12.1953C189.223 12.4181 189.324 12.6003 189.527 12.7421C189.729 12.8839 190.114 13.0155 190.681 13.137L191.623 13.3497C193.567 13.7952 194.944 14.4129 195.754 15.2027C196.585 15.9723 197 16.9748 197 18.2101Z" fill="#939FA4"/>
<path d="M52.2028 7.91167C50.6434 7.91167 49.4485 8.38759 48.6182 9.33944C47.7879 10.2913 47.3727 11.638 47.3727 13.3797C47.3727 15.1416 47.8284 16.4985 48.7397 17.4504C49.6713 18.4022 50.9168 18.8781 52.4762 18.8781C53.3065 18.8781 54.0052 18.7667 54.5723 18.544C55.1596 18.3212 55.7165 18.068 56.2431 17.7845C56.5874 18.068 56.8506 18.4123 57.0329 18.8174C57.2354 19.2022 57.3367 19.6578 57.3367 20.1844C57.3367 21.0147 56.8709 21.7235 55.9393 22.3108C55.0279 22.8779 53.6306 23.1614 51.7471 23.1614C50.3902 23.1614 49.1144 22.969 47.9195 22.5842C46.7246 22.1994 45.6817 21.6121 44.7906 20.8223C43.8995 20.0122 43.1907 18.9996 42.6641 17.7845C42.1578 16.5491 41.9047 15.0809 41.9047 13.3797C41.9047 11.8001 42.1477 10.4128 42.6337 9.21792C43.14 8.0028 43.8185 6.98008 44.6691 6.14975C45.5399 5.31942 46.5525 4.6916 47.7069 4.26631C48.8612 3.84102 50.0966 3.62838 51.413 3.62838C53.2762 3.62838 54.714 3.93216 55.7266 4.53971C56.7595 5.14727 57.2759 5.92698 57.2759 6.87882C57.2759 7.40537 57.1443 7.86104 56.881 8.24583C56.6177 8.63062 56.314 8.9344 55.9697 9.15717C55.4431 8.81288 54.8761 8.51923 54.2685 8.27621C53.6812 8.03318 52.9926 7.91167 52.2028 7.91167Z" fill="#939FA4"/>
<path d="M65.183 19.3338C65.5273 19.3338 65.9019 19.3034 66.307 19.2427C66.7322 19.1616 67.0462 19.0604 67.2487 18.9389V16.5086L65.0615 16.6909C64.4944 16.7314 64.0286 16.8529 63.6641 17.0554C63.2995 17.258 63.1173 17.5617 63.1173 17.9668C63.1173 18.3718 63.2692 18.706 63.5729 18.9693C63.897 19.2123 64.4337 19.3338 65.183 19.3338ZM64.9399 7.39524C66.0336 7.39524 67.0259 7.50663 67.917 7.7294C68.8283 7.95217 69.5979 8.29646 70.2257 8.76225C70.8738 9.2078 71.37 9.78498 71.7142 10.4938C72.0585 11.1824 72.2307 12.0026 72.2307 12.9544V19.7591C72.2307 20.2856 72.0788 20.7211 71.775 21.0653C71.4915 21.3894 71.1472 21.6729 70.7421 21.9159C69.4258 22.7057 67.5727 23.1007 65.183 23.1007C64.1096 23.1007 63.1375 22.9994 62.2667 22.7969C61.4161 22.5944 60.6769 22.2906 60.0491 21.8855C59.4415 21.4805 58.9656 20.9641 58.6213 20.3363C58.2973 19.7085 58.1353 18.9794 58.1353 18.149C58.1353 16.7517 58.5504 15.6783 59.3808 14.929C60.2111 14.1797 61.4971 13.7139 63.2388 13.5316L67.2183 13.1063V12.8937C67.2183 12.3064 66.955 11.8912 66.4285 11.6482C65.9222 11.3849 65.183 11.2532 64.2109 11.2532C63.4413 11.2532 62.692 11.3343 61.9629 11.4963C61.2338 11.6583 60.5756 11.8608 59.9883 12.1038C59.7251 11.9216 59.5023 11.6482 59.32 11.2836C59.1378 10.8988 59.0466 10.5039 59.0466 10.0989C59.0466 9.57233 59.1681 9.15717 59.4112 8.85339C59.6744 8.52936 60.0693 8.25595 60.5959 8.03318C61.1832 7.81041 61.8718 7.64839 62.6616 7.54713C63.4717 7.44587 64.2311 7.39524 64.9399 7.39524Z" fill="#939FA4"/>
<path d="M86.9319 18.2098C86.9319 19.749 86.3548 20.9539 85.2004 21.8248C84.046 22.6956 82.3449 23.131 80.0969 23.131C79.2463 23.131 78.4565 23.0703 77.7274 22.9488C76.9983 22.8273 76.3705 22.645 75.844 22.402C75.3377 22.1387 74.9326 21.8147 74.6289 21.4299C74.3453 21.0451 74.2036 20.5894 74.2036 20.0629C74.2036 19.5768 74.3048 19.1718 74.5073 18.8477C74.7099 18.5035 74.9529 18.2199 75.2364 17.9972C75.8237 18.3212 76.492 18.6148 77.2414 18.8781C78.0109 19.1211 78.8919 19.2427 79.8843 19.2427C80.5121 19.2427 80.988 19.1515 81.312 18.9693C81.6563 18.787 81.8284 18.544 81.8284 18.2402C81.8284 17.9567 81.7069 17.7339 81.4639 17.5719C81.2209 17.4099 80.8158 17.2782 80.2488 17.177L79.3374 16.9947C77.5755 16.6504 76.2591 16.1137 75.3883 15.3847C74.5377 14.6353 74.1124 13.5721 74.1124 12.195C74.1124 11.4456 74.2745 10.7672 74.5985 10.1596C74.9225 9.55208 75.3782 9.04578 75.9655 8.64074C76.5528 8.2357 77.2515 7.9218 78.0616 7.69902C78.8919 7.47625 79.8032 7.36487 80.7956 7.36487C81.5449 7.36487 82.2436 7.42562 82.8917 7.54713C83.56 7.64839 84.1372 7.81041 84.6232 8.03318C85.1093 8.25595 85.4941 8.54961 85.7776 8.91414C86.0611 9.25843 86.2029 9.67359 86.2029 10.1596C86.2029 10.6254 86.1117 11.0305 85.9295 11.3748C85.7675 11.6988 85.5548 11.9722 85.2915 12.195C85.1295 12.0937 84.8865 11.9924 84.5625 11.8912C84.2384 11.7697 83.884 11.6684 83.4992 11.5874C83.1144 11.4861 82.7195 11.4051 82.3145 11.3444C81.9297 11.2836 81.5753 11.2532 81.2513 11.2532C80.5829 11.2532 80.0665 11.3343 79.702 11.4963C79.3374 11.638 79.1552 11.8709 79.1552 12.195C79.1552 12.4177 79.2564 12.6 79.459 12.7418C79.6615 12.8835 80.0463 13.0152 80.6133 13.1367L81.555 13.3493C83.4992 13.7949 84.8764 14.4126 85.6864 15.2024C86.5168 15.972 86.9319 16.9744 86.9319 18.2098Z" fill="#939FA4"/>
<path d="M103.099 22.5842C102.896 22.645 102.572 22.7057 102.127 22.7665C101.701 22.8273 101.256 22.8576 100.79 22.8576C100.344 22.8576 99.9394 22.8273 99.5749 22.7665C99.2306 22.7057 98.9369 22.5842 98.6939 22.402C98.4509 22.2197 98.2585 21.9767 98.1167 21.6729C97.9952 21.3489 97.9345 20.9337 97.9345 20.4274V13.6835C97.9345 12.8532 97.7218 12.276 97.2965 11.9519C96.8915 11.6077 96.3852 11.4355 95.7776 11.4355C95.3726 11.4355 94.9878 11.4861 94.6233 11.5874C94.2587 11.6887 93.9651 11.8102 93.7423 11.9519V22.5842C93.5398 22.645 93.2158 22.7057 92.7702 22.7665C92.3449 22.8273 91.8994 22.8576 91.4336 22.8576C90.988 22.8576 90.583 22.8273 90.2185 22.7665C89.8742 22.7057 89.5805 22.5842 89.3375 22.402C89.0945 22.2197 88.9021 21.9767 88.7603 21.6729C88.6388 21.3489 88.578 20.9337 88.578 20.4274V2.80817C88.8008 2.76767 89.1249 2.71704 89.5501 2.65628C89.9957 2.57527 90.4412 2.53477 90.8868 2.53477C91.3323 2.53477 91.7272 2.56515 92.0715 2.6259C92.4361 2.68666 92.7398 2.80817 92.9829 2.99044C93.2259 3.17271 93.4081 3.42586 93.5297 3.74989C93.6714 4.05367 93.7423 4.45871 93.7423 4.96501V7.94205C94.0056 7.84079 94.4005 7.7294 94.927 7.60789C95.4739 7.46613 96.0713 7.39524 96.7193 7.39524C98.7243 7.39524 100.284 7.90154 101.398 8.91414C102.532 9.90649 103.099 11.395 103.099 13.3797V22.5842Z" fill="#939FA4"/>
<path d="M105.254 3.74989C105.254 2.98031 105.508 2.33225 106.014 1.8057C106.54 1.27914 107.229 1.01587 108.08 1.01587C108.93 1.01587 109.609 1.27914 110.115 1.8057C110.641 2.33225 110.905 2.98031 110.905 3.74989C110.905 4.51946 110.641 5.16753 110.115 5.69408C109.609 6.22063 108.93 6.48391 108.08 6.48391C107.229 6.48391 106.54 6.22063 106.014 5.69408C105.508 5.16753 105.254 4.51946 105.254 3.74989ZM110.662 22.5842C110.439 22.6247 110.105 22.6754 109.659 22.7361C109.234 22.8171 108.798 22.8576 108.353 22.8576C107.907 22.8576 107.502 22.8273 107.138 22.7665C106.794 22.7057 106.5 22.5842 106.257 22.402C106.014 22.2197 105.821 21.9767 105.68 21.6729C105.558 21.3489 105.497 20.9337 105.497 20.4274V8.06356C105.72 8.02306 106.044 7.97243 106.469 7.91167C106.915 7.83066 107.361 7.79016 107.806 7.79016C108.252 7.79016 108.647 7.82054 108.991 7.88129C109.355 7.94205 109.659 8.06356 109.902 8.24583C110.145 8.4281 110.327 8.68125 110.449 9.00528C110.591 9.30906 110.662 9.7141 110.662 10.2204V22.5842Z" fill="#939FA4"/>
<path d="M120.845 23.1007C119.65 23.1007 118.536 22.9386 117.504 22.6146C116.491 22.2703 115.6 21.764 114.83 21.0957C114.081 20.4274 113.484 19.5869 113.038 18.5743C112.613 17.5617 112.4 16.377 112.4 15.0201C112.4 13.6835 112.613 12.5392 113.038 11.5874C113.484 10.6153 114.061 9.82548 114.77 9.21792C115.478 8.59011 116.288 8.13444 117.2 7.85091C118.111 7.54713 119.043 7.39524 119.995 7.39524C121.068 7.39524 122.04 7.55726 122.911 7.88129C123.802 8.20532 124.561 8.65087 125.189 9.21792C125.837 9.78498 126.333 10.4634 126.678 11.2532C127.042 12.0431 127.225 12.9038 127.225 13.8354C127.225 14.5239 127.032 15.0505 126.647 15.415C126.263 15.7796 125.726 16.0125 125.037 16.1137L117.534 17.2377C117.757 17.906 118.212 18.4123 118.901 18.7566C119.59 19.0806 120.379 19.2427 121.27 19.2427C122.101 19.2427 122.88 19.1414 123.61 18.9389C124.359 18.7161 124.966 18.463 125.432 18.1794C125.756 18.3819 126.03 18.6655 126.252 19.03C126.475 19.3945 126.587 19.7793 126.587 20.1844C126.587 21.0957 126.161 21.7742 125.311 22.2197C124.663 22.564 123.934 22.7969 123.124 22.9184C122.313 23.0399 121.554 23.1007 120.845 23.1007ZM119.995 11.1621C119.509 11.1621 119.083 11.2431 118.719 11.4051C118.374 11.5672 118.091 11.7798 117.868 12.0431C117.645 12.2861 117.473 12.5696 117.352 12.8937C117.25 13.1974 117.19 13.5113 117.169 13.8354L122.364 12.9848C122.303 12.5798 122.081 12.1747 121.696 11.7697C121.311 11.3646 120.744 11.1621 119.995 11.1621Z" fill="#939FA4"/>
<path d="M133.963 22.5842C133.761 22.645 133.437 22.7057 132.991 22.7665C132.566 22.8273 132.12 22.8576 131.654 22.8576C131.209 22.8576 130.804 22.8273 130.439 22.7665C130.095 22.7057 129.801 22.5842 129.558 22.402C129.315 22.2197 129.123 21.9767 128.981 21.6729C128.86 21.3489 128.799 20.9337 128.799 20.4274V11.314C128.799 10.8482 128.88 10.4533 129.042 10.1293C129.224 9.78498 129.477 9.4812 129.801 9.21792C130.125 8.95465 130.52 8.72175 130.986 8.51923C131.472 8.29646 131.989 8.10406 132.535 7.94205C133.082 7.78003 133.649 7.65852 134.237 7.57751C134.824 7.47625 135.411 7.42562 135.999 7.42562C136.971 7.42562 137.74 7.61802 138.307 8.0028C138.874 8.36734 139.158 8.9749 139.158 9.82548C139.158 10.109 139.117 10.3925 139.036 10.6761C138.955 10.9393 138.854 11.1824 138.733 11.4051C138.307 11.4051 137.872 11.4254 137.426 11.4659C136.981 11.5064 136.545 11.5672 136.12 11.6482C135.695 11.7292 135.29 11.8203 134.905 11.9216C134.54 12.0026 134.226 12.1038 133.963 12.2253V22.5842Z" fill="#939FA4"/>
</svg>
